# xmcd
#
# Track frame offsets:
# 150
# 13862
# 30122
# 47982
# 60872
# 75685
# 90307
# 104890
# 118410
# 138435
# 153080
# 167385
# 185290
# 199047
# 214397
# 227705
# 239420
# 259795
#
# Disc length: 3657 seconds
#
#
# Revision: 3
# Processed by: cddbd v1.5.2PL0 Copyright (c) Steve Scherf et al.
# Submitted via: FreeRIP 2.951 
#
DISCID=eb0e4712
DTITLE=Tchê Music - Diversos
DYEAR=1999
DGENRE=Gaúcho
TTITLE0=Tchê Garotos - Voce Disse Que Não
TTITLE1=Tchê Guri - Guria
TTITLE2=Pala Velho - Primeiro Amor
TTITLE3=Tchê Guri - Baita Baile
TTITLE4=Pala Velho - Louco Pra Te Ver
TTITLE5=Oswaldir and Carlos Magrão - Favo De Mel
TTITLE6=Tchê Garotos - Voce Disse Que Não
TTITLE7=Tchê Barbaridade - Apaixonado
TTITLE8=Tchê Guri - Guria
TTITLE9=Tchê Barbaridade - Moça Fandangueira
TTITLE10=Oswaldir and Carlos Magrão - Moreninha Linda
TTITLE11=Pala Velho - Primeiro Amor
TTITLE12=Tchê Garotos - Hoje A Cobra Vai Fumar
TTITLE13=Oswaldir and Carlos Magrão - Nós
TTITLE14=Tchê Guri - Alegria
TTITLE15=Pala Velho - Vaneira Do Coração
TTITLE16=Tchê Garotos - No Jeitinho Brasileiro
TTITLE17=Tchê Barbaridade - Ausência
EXTD=
EXTT0=
EXTT1=
EXTT2=
EXTT3=
EXTT4=
EXTT5=
EXTT6=
EXTT7=
EXTT8=
EXTT9=
EXTT10=
EXTT11=
EXTT12=
EXTT13=
EXTT14=
EXTT15=
EXTT16=
EXTT17=
PLAYORDER=
